<?xml version="1.0" encoding="UTF-8"?>
<svg xmlns="http://www.w3.org/2000/svg" xmlns:xlink="http://www.w3.org/1999/xlink" viewBox="0 0 50 50" version="1.1" fill="#000000"><g id="surface1" fill="#000000"><path style=" " d="M 28 0 C 22.484375 0 18 4.484375 18 10 C 18 18.621094 26.871094 29.210938 27.25 29.65625 C 27.441406 29.878906 27.707031 30 28 30 C 28.296875 30 28.589844 29.851563 28.78125 29.625 C 29.15625 29.171875 38 18.425781 38 10 C 38 4.484375 33.515625 0 28 0 Z M 0.96875 6 C 0.800781 6.007813 0.617188 6.066406 0.46875 6.15625 C 0.175781 6.339844 0 6.652344 0 7 L 0 43 C 0 43.378906 0.222656 43.734375 0.5625 43.90625 L 12.5625 49.90625 C 12.84375 50.046875 13.15625 50.046875 13.4375 49.90625 L 25.03125 44.125 L 37.59375 49.90625 C 37.726563 49.96875 37.855469 50 38 50 C 38.164063 50 38.320313 49.957031 38.46875 49.875 L 49.46875 43.875 C 49.789063 43.699219 50 43.367188 50 43 L 50 7 C 50 6.648438 49.800781 6.304688 49.5 6.125 C 49.195313 5.945313 48.839844 5.957031 48.53125 6.125 L 39.96875 10.78125 C 39.488281 19.589844 31.277344 29.746094 30.3125 30.90625 C 29.742188 31.589844 28.898438 31.996094 28 32 C 27.117188 32 26.292969 31.613281 25.71875 30.9375 C 24.742188 29.785156 16.347656 19.582031 16.03125 10.53125 L 13.03125 11.90625 L 1.4375 6.09375 C 1.28125 6.015625 1.136719 5.992188 0.96875 6 Z M 28 7 C 30.210938 7 32 8.789063 32 11 C 32 13.210938 30.210938 15 28 15 C 25.789063 15 24 13.210938 24 11 C 24 8.789063 25.789063 7 28 7 Z " fill="#000000"/></g></svg>
