<?xml version="1.0" encoding="utf-8"?>
<svg xmlns="http://www.w3.org/2000/svg" viewBox="0 0 50 50" fill="#000000"><path d="M 25 1 C 24.7825 1 24.565859 1.0709375 24.380859 1.2109375 L 1.3808594 19.210938 C 0.95085938 19.550937 0.8709375 20.179141 1.2109375 20.619141 C 1.5509375 21.049141 2.1791406 21.129063 2.6191406 20.789062 L 4 19.699219 L 4 46 C 4 46.55 4.45 47 5 47 L 45 47 C 45.55 47 46 46.55 46 46 L 46 19.699219 L 47.380859 20.789062 C 47.570859 20.929063 47.78 21 48 21 C 48.3 21 48.589063 20.869141 48.789062 20.619141 C 49.129063 20.179141 49.049141 19.550937 48.619141 19.210938 L 25.619141 1.2109375 C 25.434141 1.0709375 25.2175 1 25 1 z M 13 22 L 22 22 L 22 24 L 16.099609 33.689453 L 22 33.689453 L 22 36 L 13 36 L 13 34 L 18.640625 24.320312 L 13 24.320312 L 13 22 z M 24 22 L 27 22 L 27 36 L 24 36 L 24 22 z M 32.259766 22 C 34.089766 22 35.579375 22.320234 36.609375 23.240234 C 37.539375 24.060234 38 25.320469 38 26.730469 C 38 28.380469 37.510938 29.499141 36.710938 30.369141 C 35.680937 31.509141 34.009062 32.070312 32.539062 32.070312 C 32.339062 32.070312 32.250859 32.070547 32.130859 32.060547 C 32.080859 32.060547 32.019453 32.049062 31.939453 32.039062 L 31.939453 36 L 29 36 L 29 22.300781 C 29.88 22.110781 31.049766 22 32.259766 22 z M 32.720703 24.109375 C 32.330703 24.109375 32.169453 24.160469 31.939453 24.230469 L 31.939453 29.910156 C 32.149453 29.950156 32.149453 29.949219 32.439453 29.949219 C 34.239453 29.949219 35.240234 28.789922 35.240234 26.919922 C 35.240234 25.389922 34.570703 24.109375 32.720703 24.109375 z" fill="#000000"/></svg>
