<?xml version="1.0" encoding="UTF-8"?>
<svg xmlns="http://www.w3.org/2000/svg" xmlns:xlink="http://www.w3.org/1999/xlink" viewBox="0 0 50 50" version="1.1" fill="#000000"><g id="surface1" fill="#000000"><path style=" " d="M 25.5 0 C 22.46875 0 20 2.46875 20 5.5 C 20 8.535156 22.46875 11 25.5 11 C 28.535156 11 31 8.535156 31 5.5 C 31 2.46875 28.535156 0 25.5 0 Z M 18.0625 10.21875 C 18.0625 10.21875 11.574219 10.554688 10.96875 10.59375 C 10.363281 10.632813 10.035156 10.746094 9.6875 11.09375 C 9.328125 11.453125 2.9375 18.40625 2.9375 18.40625 C 1.789063 19.636719 2.628906 20.695313 3.125 20.9375 C 3.402344 21.074219 3.742188 21.195313 4.125 21.1875 C 4.136719 21.191406 4.144531 21.179688 4.15625 21.1875 L 8.03125 23.15625 C 8.183594 22.832031 8.34375 22.539063 8.5 22.28125 C 8.5 22.28125 8.703125 21.976563 9.0625 21.46875 L 6.25 20.03125 L 11.03125 15.28125 L 13.40625 15.15625 C 12.203125 17.019531 10.082031 20.03125 9.0625 21.46875 L 18.3125 26.0625 L 22.0625 20.375 C 22.84375 23.519531 24.28125 29.402344 24.625 30.5625 C 25.066406 32.058594 25.824219 33.03125 27 32.78125 C 28.179688 32.53125 28.46875 31.878906 28.15625 30.5625 C 27.78125 28.976563 25.59375 16.5 25.59375 16.5 C 25.46875 15.800781 25.207031 15.199219 24.84375 14.78125 L 24.84375 14.75 C 24.84375 14.75 24.039063 13.640625 21.78125 12.09375 C 19.523438 10.546875 18.703125 10.21875 18.125 10.21875 C 18.117188 10.21875 18.105469 10.25 18.09375 10.25 C 18.078125 10.246094 18.078125 10.21875 18.0625 10.21875 Z M 18.3125 26.0625 L 17.75 26.90625 L 17.3125 27.8125 L 22.5 30.40625 C 22.332031 29.777344 22.101563 28.871094 21.84375 27.84375 Z M 17.3125 27.8125 L 8.03125 23.15625 C 7.5625 24.140625 7.144531 25.3125 7 25.78125 C 6.808594 26.40625 1.390625 44.652344 1.21875 45.3125 C 1.046875 45.976563 0.652344 48.136719 2.6875 48.84375 C 4.851563 49.59375 5.5 46.96875 5.5 46.96875 L 11.21875 31.875 L 16.4375 36.71875 L 17.65625 46.5625 C 17.65625 46.5625 17.734375 49 19.6875 49 C 21.640625 49 21.65625 47.730469 21.65625 46.125 C 21.65625 44.6875 21.339844 37.980469 21.3125 37.40625 C 21.285156 36.832031 21.074219 36.117188 20.84375 35.71875 C 20.296875 34.78125 16.90625 28.625 16.90625 28.625 Z M 39.15625 30 C 37.644531 30 36.855469 30.550781 34.625 34.25 L 30.21875 32.03125 C 30.15625 32.429688 30.027344 32.828125 29.78125 33.21875 C 29.644531 33.433594 29.464844 33.640625 29.28125 33.8125 L 33.59375 35.9375 C 32.519531 37.59375 31.855469 38.0625 31.5 38.0625 C 30.910156 38.0625 29.113281 38.046875 28.375 39.65625 C 27.835938 40.824219 24.128906 48.484375 24.09375 48.5625 C 23.945313 48.875 23.972656 49.238281 24.15625 49.53125 C 24.339844 49.820313 24.65625 50 25 50 L 49 50 C 49.34375 50 49.660156 49.820313 49.84375 49.53125 C 50.027344 49.242188 50.050781 48.871094 49.90625 48.5625 C 49.839844 48.421875 43.242188 34.457031 42.59375 32.9375 C 41.765625 30.992188 40.609375 30 39.15625 30 Z " fill="#000000"/></g></svg>
