<?xml version="1.0" encoding="utf-8"?>
<svg xmlns="http://www.w3.org/2000/svg" viewBox="0 0 50 50" fill="#000000"><path d="M 24.964844 1 A 1.0001 1.0001 0 0 0 24.382812 1.2128906 L 4.421875 16.835938 L 1.3828125 19.212891 A 1.0002305 1.0002305 0 1 0 2.6171875 20.787109 L 4 19.705078 L 4 46 A 1.0001 1.0001 0 0 0 5 47 L 45 47 A 1.0001 1.0001 0 0 0 46 46 L 46 19.705078 L 47.382812 20.787109 A 1.0002308 1.0002308 0 1 0 48.617188 19.212891 L 45.632812 16.878906 L 25.617188 1.2128906 A 1.0001 1.0001 0 0 0 24.964844 1 z M 25 3.2695312 L 44 18.138672 L 44 45 L 6 45 L 6 18.138672 L 25 3.2695312 z M 13 22 L 13 24.318359 L 18.640625 24.318359 L 13 34 L 13 36 L 22 36 L 22 33.695312 L 16.099609 33.695312 L 22 24 L 22 22 L 13 22 z M 24 22 L 24 36 L 27 36 L 27 22 L 24 22 z M 32.255859 22 C 31.045859 22 29.877 22.108734 29 22.302734 L 29 36 L 31.939453 36 L 31.939453 32.039062 C 32.019453 32.047063 32.080766 32.054594 32.134766 32.058594 C 32.255766 32.067594 32.341109 32.066406 32.537109 32.066406 C 34.007109 32.066406 35.680937 31.509141 36.710938 30.369141 C 37.508938 29.496141 38 28.379469 38 26.730469 C 38 25.324469 37.534375 24.063281 36.609375 23.238281 C 35.576375 22.315281 34.084859 22 32.255859 22 z M 32.71875 24.107422 C 34.57275 24.107422 35.242188 25.394875 35.242188 26.921875 C 35.242187 28.791875 34.236547 29.955078 32.435547 29.955078 C 32.152547 29.955078 32.147406 29.95425 31.941406 29.90625 L 31.941406 24.228516 C 32.173406 24.155516 32.33175 24.107422 32.71875 24.107422 z" fill="#000000"/></svg>
